<svg xmlns="http://www.w3.org/2000/svg" viewBox="0 0 32 32" width="32" height="32">
  <defs>
    <linearGradient id="bg" x1="0%" y1="0%" x2="100%" y2="100%">
      <stop offset="0%" style="stop-color:#667eea"/>
      <stop offset="100%" style="stop-color:#764ba2"/>
    </linearGradient>
  </defs>
  <rect width="32" height="32" rx="6" fill="url(#bg)"/>
  <path d="M8 12c0-1 0.5-2 1.5-2.5C10.5 9 12 9 14 10c1.5 0.8 2.5 2 3 3.5c0.3 1 0.2 2-0.2 2.8c-0.5 1-1.5 1.5-2.8 1.7c-1 0.2-2 0-2.8-0.5c-0.8-0.5-1.4-1.3-1.7-2.2C9.2 14.5 9 13.2 9.2 12z" fill="white" opacity="0.9"/>
  <circle cx="11" cy="13" r="1" fill="#333"/>
  <path d="M14 16c1 0 2-0.2 3-0.8c1.2-0.8 2-2 2.2-3.5c0.2-1.2-0.1-2.4-0.8-3.4c-0.5-0.8-1.2-1.4-2-1.8" stroke="white" stroke-width="1.5" fill="none" opacity="0.7"/>
  <text x="16" y="28" font-family="Arial" font-size="10" font-weight="bold" fill="white" text-anchor="middle">ODDS</text>
</svg>